<svg width="400" height="400" xmlns="http://www.w3.org/2000/svg">
  <g transform="matrix(6.92903 0 0 6.92903 -334.162 -472.585)" id="svg_1">
   <path fill="#ffffff"  d="m77.03269,72.57705c-13.234,0 -24,10.766 -24,24c0,13.233 10.766,24 24,24s24,-10.767 24,-24c0,-13.234 -10.766,-24 -24,-24zm0,44c-11.028,0 -20,-8.972 -20,-20c0,-11.028 8.972,-20 20,-20s20,8.972 20,20c0,11.028 -8.972,20 -20,20z" id="svg_2" xmlns="http://www.w3.org/2000/svg"/>
   <path fill="#ffffff"  d="m84.03269,89.57705c-2.476,0 -5.232,2.284 -7,4.055c-1.768,-1.771 -4.524,-4.055 -7,-4.055c-3.86,0 -7,3.14 -7,7c0,3.859 3.14,7 7,7c2.476,0 5.232,-2.284 7,-4.055c1.768,1.771 4.524,4.055 7,4.055c3.86,0 7,-3.141 7,-7c0,-3.86 -3.14,-7 -7,-7zm-14,10c-1.654,0 -3,-1.346 -3,-3s1.346,-3 3,-3c0.824,0 2.683,1.411 4.276,3.001c-1.59,1.59 -3.448,2.999 -4.276,2.999zm14,0c-0.824,0 -2.683,-1.41 -4.276,-3.001c1.59,-1.59 3.448,-2.999 4.276,-2.999c1.654,0 3,1.346 3,3s-1.346,3 -3,3z" id="svg_3" xmlns="http://www.w3.org/2000/svg"/>
  </g>
</svg>