<svg width="800" height="800" xmlns="http://www.w3.org/2000/svg">
  <g stroke-width="0" id="svg_1" transform="matrix(14.4071 0 0 14.4071 -2083.66 -1302.89)" fill="#01aac1">
   <path stroke="null" id="svg_2" d="m182.86171,108.00469c-3.53714,0 -7.47429,3.26286 -10,5.79286c-2.52571,-2.53 -6.46286,-5.79286 -10,-5.79286c-5.51429,0 -10,4.48571 -10,10c0,5.51286 4.48571,10 10,10c3.53714,0 7.47429,-3.26286 10,-5.79286c2.52571,2.53 6.46286,5.79286 10,5.79286c5.51429,0 10,-4.48714 10,-10c0,-5.51429 -4.48571,-10 -10,-10zm-20,14.28571c-2.36286,0 -4.28571,-1.92286 -4.28571,-4.28571s1.92286,-4.28571 4.28571,-4.28571c1.17714,0 3.83286,2.01571 6.10857,4.28714c-2.27143,2.27143 -4.92571,4.28429 -6.10857,4.28429l0,-0.00001zm20,0c-1.17714,0 -3.83286,-2.01429 -6.10857,-4.28714c2.27143,-2.27143 4.92571,-4.28429 6.10857,-4.28429c2.36286,0 4.28571,1.92286 4.28571,4.28571s-1.92286,4.28571 -4.28571,4.28571l0,0.00001z"/>
  </g>
</svg>